# xmcd
#
# Track frame offsets:
#       150
#       14973
#       26044
#       42243
#       58807
#       72994
#       86895
#       97099
#       116200
#       128247
#       144736
#       163506
#
# Disc length: 2368 seconds
#
# Revision: 1
# Processed by: cddbd v1.4PL0 Copyright (c) Steve Scherf et al.
# Submitted via: MusiCat 1.1
#
DISCID=ba093e0c
DTITLE=John Mayall  - The Blues Alone
DYEAR=1967
DGENRE=
TTITLE0=Brand New Start
TTITLE1=Please don't Tell
TTITLE2=Down The Line
TTITLE3=Sonny Boy Blow
TTITLE4=Marsha's Mood
TTITLE5=No More Tears
TTITLE6=Catch That Train
TTITLE7=Cancelling Out
TTITLE8=Harp Man
TTITLE9=Brown Sugar
TTITLE10=Broken Wings
TTITLE11=Don't Kick Me
EXTD=1967\nAce of Clubs (Decca]\n\nSolo multitracked John Mayall (with help fr
EXTD=om Keef Hartley (drums) on tracks 2,4,6,8,9, 10,11,12)\r\n
EXTT0=
EXTT1=
EXTT2=
EXTT3=
EXTT4=
EXTT5=
EXTT6=
EXTT7=
EXTT8=
EXTT9=
EXTT10=
EXTT11=
PLAYORDER=
